<?xml version="1.0" encoding="utf-8"?>
<!-- Generator: Adobe Illustrator 23.0.3, SVG Export Plug-In . SVG Version: 6.00 Build 0)  -->
<svg version="1.1" id="Layer_1" xmlns="http://www.w3.org/2000/svg" xmlns:xlink="http://www.w3.org/1999/xlink" x="0px" y="0px"
	 width="419.02px" height="90px" viewBox="0 0 419.02 90" enable-background="new 0 0 419.02 90" xml:space="preserve">
<g>
	<g>
		<polygon fill="#00F2E6" points="31.4,58.6 23.1,68.85 31.1,82.85 47.1,85.79 47.1,70.85 35.1,66.85 		"/>
		<polygon fill="#00F2E6" points="62.79,58.6 75.1,56.85 82.1,43.85 78.49,31.41 67.1,31.85 66.1,51.85 		"/>
		<polygon fill="#00F2E6" points="47.1,31.41 45.1,13.85 22.1,23.85 15.7,31.41 22.1,40.85 38.1,31.85 		"/>
		<path fill="#00F2E6" d="M31.4,58.6c0-11.62,6.32-21.76,15.7-27.19c-4.62-2.67-9.98-4.21-15.7-4.21C14.06,27.2,0,41.26,0,58.6
			S14.06,90,31.4,90c5.72,0,11.08-1.54,15.7-4.21C37.72,80.36,31.4,70.22,31.4,58.6z"/>
		<path fill="#633EFF" d="M62.79,58.6c-10.06,5.81-22,5.41-31.39,0c-0.01,5.34,1.34,10.75,4.2,15.7
			c8.67,15.02,27.87,20.16,42.89,11.49S98.65,57.91,89.98,42.9c-2.86-4.95-6.87-8.83-11.5-11.49C78.48,42.25,72.86,52.79,62.79,58.6
			z"/>
		<path fill="#F93AEB" d="M47.09,31.4c10.06,5.81,15.68,16.35,15.7,27.19c4.62-2.66,8.64-6.54,11.5-11.49
			c8.67-15.02,3.53-34.22-11.49-42.89S28.57,0.69,19.9,15.7c-2.86,4.95-4.21,10.36-4.2,15.7C25.09,26,37.03,25.59,47.09,31.4z"/>
	</g>
	<g>
		<g>
			<path d="M167.92,19.77c0,4.8-3.38,8.18-7.95,8.18h-1.75c0.06,0.45,0.4,1.07,0.62,1.52L167.7,46h-4.68l-7.73-14.5
				c-0.68-1.24-1.13-2.37-1.35-3.55h-8.41V46h-4.23V6h18.67c4.57,0,7.95,3.44,7.95,8.24V19.77z M163.69,14.24
				c0-2.6-1.52-4.34-3.61-4.34h-14.56v14.16h14.5c2.14,0,3.67-1.69,3.67-4.29V14.24z"/>
			<path d="M196.86,28.79c0,2.82-1.75,4.51-4.29,4.51h-14.5v4.63c0,2.65,1.52,4.4,3.72,4.4h12.92V46h-12.81
				c-4.46,0-7.79-3.33-7.79-8.07V26.08c0-4.74,3.27-8.07,7.73-8.07h7.17c4.46,0,7.84,3.33,7.84,8.07V28.79z M192.86,26.14
				c0-2.65-1.52-4.46-3.72-4.46h-7.28c-2.2,0-3.78,1.75-3.78,4.4v3.55h14.78V26.14z"/>
			<path d="M222.08,41.15l-0.79,1.52c-1.3,2.54-2.82,3.33-5.36,3.33h-11.9v-3.67h11.51c1.24,0,1.75-0.45,2.31-1.47l0.73-1.35
				c0.34-0.62,0.57-1.35,0.57-2.14l-13.37-7.39c-1.81-1.01-2.71-2.09-2.71-4.06c0-0.9,0.34-1.75,1.07-3.16l0.79-1.52
				c1.3-2.48,2.82-3.22,5.36-3.22h11.57v3.67h-11.17c-1.24,0-1.75,0.28-2.31,1.35l-0.73,1.41c-0.4,0.73-0.56,1.24-0.56,1.98
				l13.26,7.39c1.92,1.07,2.82,2.09,2.82,4.06C223.15,38.78,222.81,39.74,222.08,41.15z"/>
			<path d="M238.67,46c-1.92,0-3.5-0.96-4.57-2.99l-0.73-1.41c-0.51-0.96-0.62-1.69-0.62-3.16V21.68h-5.92v-3.67h5.92v-6.38h3.95
				v6.38h8.91v3.67h-8.91v16.76c0,0.79,0.17,1.41,0.45,1.97l0.45,0.85c0.39,0.68,1.02,1.07,1.8,1.07h6.21V46H238.67z"/>
			<path d="M291.81,46V27.89h-18.84V46h-4.23V6h4.23v18h18.84V6h4.23v40H291.81z"/>
			<path d="M315.16,46c-3.22,0-5.3-1.41-6.77-4.12l-3.1-5.81c-0.73-1.35-1.07-2.59-1.07-4.06c0-1.41,0.4-2.71,1.13-4.06l3.1-5.87
				c1.47-2.82,3.84-4.06,6.83-4.06h4.63c2.99,0,5.36,1.24,6.83,4.06l3.1,5.87c0.73,1.35,1.13,2.65,1.13,4.06
				c0,1.47-0.34,2.71-1.07,4.06l-3.1,5.81c-1.47,2.71-3.55,4.12-6.77,4.12H315.16z M320.01,42.33c1.64,0,2.54-0.73,3.38-2.31
				l3.05-5.87c0.4-0.79,0.56-1.35,0.56-2.14c0-0.73-0.17-1.47-0.56-2.2l-3.1-5.81c-0.79-1.47-1.8-2.31-3.55-2.31h-4.4
				c-1.75,0-2.76,0.85-3.55,2.31l-3.1,5.81c-0.39,0.73-0.56,1.47-0.56,2.2c0,0.79,0.17,1.35,0.56,2.14l3.05,5.87
				c0.85,1.58,1.75,2.31,3.39,2.31H320.01z"/>
			<path d="M346.98,46c-3.22,0-5.3-1.41-6.77-4.12l-3.1-5.81c-0.73-1.35-1.07-2.59-1.07-4.06c0-1.41,0.4-2.71,1.13-4.06l3.1-5.87
				c1.47-2.82,3.84-4.06,6.83-4.06h4.63c2.99,0,5.36,1.24,6.83,4.06l3.1,5.87c0.73,1.35,1.13,2.65,1.13,4.06
				c0,1.47-0.34,2.71-1.07,4.06l-3.1,5.81c-1.47,2.71-3.55,4.12-6.77,4.12H346.98z M351.83,42.33c1.64,0,2.54-0.73,3.38-2.31
				l3.05-5.87c0.4-0.79,0.56-1.35,0.56-2.14c0-0.73-0.17-1.47-0.56-2.2l-3.1-5.81c-0.79-1.47-1.81-2.31-3.55-2.31h-4.4
				c-1.75,0-2.76,0.85-3.55,2.31l-3.1,5.81c-0.39,0.73-0.56,1.47-0.56,2.2c0,0.79,0.17,1.35,0.56,2.14l3.05,5.87
				c0.85,1.58,1.75,2.31,3.39,2.31H351.83z"/>
			<path d="M386.69,29.92c3.22,0.85,5.25,3.67,5.25,7.45V46h-3.95v-8.63c0-2.48-1.3-4.06-3.5-4.06h-10.16V46h-3.95V6h3.95v23.64
				h8.12l6.26-11.62h4.29L386.69,29.92z"/>
			<path d="M417.95,41.15l-0.79,1.52c-1.3,2.54-2.82,3.33-5.36,3.33h-11.9v-3.67h11.51c1.24,0,1.75-0.45,2.31-1.47l0.73-1.35
				c0.34-0.62,0.56-1.35,0.56-2.14l-13.37-7.39c-1.81-1.01-2.71-2.09-2.71-4.06c0-0.9,0.34-1.75,1.07-3.16l0.79-1.52
				c1.3-2.48,2.82-3.22,5.36-3.22h11.57v3.67h-11.17c-1.24,0-1.75,0.28-2.31,1.35l-0.73,1.41c-0.4,0.73-0.56,1.24-0.56,1.98
				l13.26,7.39c1.92,1.07,2.82,2.09,2.82,4.06C419.02,38.78,418.68,39.74,417.95,41.15z"/>
		</g>
		<g>
			<path d="M148.41,78.51c-0.63,1.17-1.51,1.89-2.9,1.89h-4.21V67.63h4.25c1.31,0,2.21,0.65,2.86,1.85l1.42,2.68
				c0.31,0.59,0.49,1.17,0.49,1.82c0,0.65-0.18,1.24-0.49,1.84L148.41,78.51z M148.69,75.18c0.22-0.41,0.29-0.77,0.29-1.19
				c0-0.41-0.07-0.76-0.29-1.17l-1.42-2.7c-0.41-0.77-0.97-1.24-1.87-1.24h-2.75v10.28h2.86c0.83,0,1.33-0.47,1.76-1.28
				L148.69,75.18z"/>
			<path d="M159.82,74.91c0,0.9-0.56,1.44-1.37,1.44h-4.63v1.48c0,0.85,0.49,1.4,1.19,1.4h4.12v1.17h-4.09
				c-1.42,0-2.48-1.06-2.48-2.57v-3.78c0-1.51,1.04-2.57,2.47-2.57h2.29c1.42,0,2.5,1.06,2.5,2.57V74.91z M158.54,74.06
				c0-0.85-0.49-1.42-1.19-1.42h-2.32c-0.7,0-1.21,0.56-1.21,1.4v1.13h4.72V74.06z"/>
			<path d="M164.5,80.4c-0.61,0-1.12-0.31-1.46-0.95l-0.23-0.45c-0.16-0.31-0.2-0.54-0.2-1.01V67.63h1.26v10.35
				c0,0.25,0.05,0.45,0.14,0.63l0.14,0.27c0.13,0.22,0.32,0.34,0.58,0.34h1.62v1.17H164.5z"/>
			<path d="M169.28,80.4v-7.76h-2.84v-1.17h3.04c0.76,0,1.06,0.41,1.06,1.03v7.9H169.28z M169.07,69.34v-1.71h1.69v1.71H169.07z"/>
			<path d="M181.15,81.43c0,1.51-1.04,2.57-2.47,2.57h-3.85v-1.17h3.85c0.7,0,1.21-0.54,1.21-1.39v-2.88l-0.23,0.41
				c-0.49,0.85-1.08,1.42-2.11,1.42h-1.51c-1.42,0-2.48-1.06-2.48-2.57v-3.8c0-1.51,1.06-2.56,2.48-2.56h1.53
				c1.03,0,1.67,0.56,2.12,1.42l0.29,0.56l0.2-1.98h0.97V81.43z M179.73,75.25l-0.97-1.85c-0.27-0.5-0.58-0.76-1.1-0.76H176
				c-0.7,0-1.19,0.54-1.19,1.39v3.8c0,0.85,0.49,1.4,1.19,1.4h1.67c0.52,0,0.81-0.23,1.08-0.74l0.99-1.85
				c0.11-0.2,0.14-0.43,0.14-0.68S179.83,75.45,179.73,75.25z"/>
			<path d="M190,80.4v-6.46c0-0.79-0.41-1.3-1.12-1.3h-0.77c-0.65,0-0.83,0.16-1.17,0.79l-1.3,2.41v4.56h-1.26V67.63h1.26v5.98
				l0.4-0.76c0.47-0.9,1.06-1.39,2.09-1.39h0.74c1.42,0,2.39,0.99,2.39,2.47v6.46H190z"/>
			<path d="M196.93,80.4c-0.61,0-1.12-0.31-1.46-0.95l-0.23-0.45c-0.16-0.31-0.2-0.54-0.2-1.01v-5.35h-1.89v-1.17h1.89v-2.03h1.26
				v2.03h2.84v1.17h-2.84v5.35c0,0.25,0.05,0.45,0.14,0.63l0.14,0.27c0.13,0.22,0.32,0.34,0.58,0.34h1.98v1.17H196.93z"/>
			<path d="M203.75,72.64v7.76h-1.26v-7.76h-2.32v-1.17h2.32v-1.42c0-0.47,0.04-0.7,0.2-1.01l0.23-0.45
				c0.34-0.65,0.85-0.95,1.46-0.95h2.68v1.17h-2.45c-0.29,0-0.45,0.13-0.58,0.34l-0.16,0.27c-0.11,0.18-0.13,0.38-0.13,0.63v1.42
				h3.31v1.17H203.75z"/>
			<path d="M214.46,80.4l-0.18-2.3l-0.47,0.92c-0.47,0.9-1.06,1.39-2.09,1.39h-0.74c-1.42,0-2.4-0.99-2.4-2.47v-6.46h1.26v6.46
				c0,0.79,0.41,1.3,1.12,1.3h0.77c0.65,0,0.83-0.16,1.17-0.79l1.3-2.41v-4.56h1.26v8.93H214.46z"/>
			<path d="M220.6,80.4c-0.61,0-1.12-0.31-1.46-0.95l-0.23-0.45c-0.16-0.31-0.2-0.54-0.2-1.01V67.63h1.26v10.35
				c0,0.25,0.05,0.45,0.14,0.63l0.14,0.27c0.13,0.22,0.32,0.34,0.58,0.34h1.62v1.17H220.6z"/>
			<path d="M236.23,78.51c-0.63,1.17-1.51,1.89-2.9,1.89h-4.21V67.63h4.25c1.31,0,2.21,0.65,2.86,1.85l1.42,2.68
				c0.31,0.59,0.49,1.17,0.49,1.82c0,0.65-0.18,1.24-0.49,1.84L236.23,78.51z M236.51,75.18c0.22-0.41,0.29-0.77,0.29-1.19
				c0-0.41-0.07-0.76-0.29-1.17l-1.42-2.7c-0.41-0.77-0.97-1.24-1.87-1.24h-2.75v10.28h2.86c0.83,0,1.33-0.47,1.76-1.28
				L236.51,75.18z"/>
			<path d="M245.82,80.4l-0.2-1.82l-0.2,0.4c-0.43,0.86-1.15,1.42-2.18,1.42h-1.01c-1.42,0-2.39-0.99-2.39-2.47v-0.31
				c0-1.48,0.97-2.45,2.39-2.45h3.29v-1.13c0-0.85-0.5-1.4-1.21-1.4h-3.55v-1.17h3.55c1.42,0,2.47,1.04,2.47,2.56v6.37H245.82z
				 M242.22,76.33c-0.7,0-1.12,0.5-1.12,1.3v0.31c0,0.79,0.41,1.3,1.12,1.3h1.12c0.52,0,0.88-0.22,1.22-0.86l0.79-1.48
				c0.09-0.18,0.18-0.4,0.18-0.56H242.22z"/>
			<path d="M252.46,80.4c-0.61,0-1.12-0.31-1.46-0.95l-0.23-0.45c-0.16-0.31-0.2-0.54-0.2-1.01v-5.35h-1.89v-1.17h1.89v-2.03h1.26
				v2.03h2.84v1.17h-2.84v5.35c0,0.25,0.05,0.45,0.14,0.63l0.14,0.27c0.13,0.22,0.32,0.34,0.58,0.34h1.98v1.17H252.46z"/>
			<path d="M262.63,80.4l-0.2-1.82l-0.2,0.4c-0.43,0.86-1.15,1.42-2.18,1.42h-1.01c-1.42,0-2.39-0.99-2.39-2.47v-0.31
				c0-1.48,0.97-2.45,2.39-2.45h3.29v-1.13c0-0.85-0.5-1.4-1.21-1.4h-3.55v-1.17h3.55c1.42,0,2.47,1.04,2.47,2.56v6.37H262.63z
				 M259.03,76.33c-0.7,0-1.12,0.5-1.12,1.3v0.31c0,0.79,0.41,1.3,1.12,1.3h1.12c0.52,0,0.88-0.22,1.22-0.86l0.79-1.48
				c0.09-0.18,0.18-0.4,0.18-0.56H259.03z"/>
			<path d="M272.78,68.88v4.48h5.11v1.24h-5.11v5.8h-1.35V68.88c0-0.76,0.34-1.24,1.19-1.24h6.28v1.24H272.78z"/>
			<path d="M287.51,74.91c0,0.9-0.56,1.44-1.37,1.44h-4.63v1.48c0,0.85,0.49,1.4,1.19,1.4h4.12v1.17h-4.09
				c-1.42,0-2.48-1.06-2.48-2.57v-3.78c0-1.51,1.04-2.57,2.47-2.57h2.29c1.42,0,2.5,1.06,2.5,2.57V74.91z M286.23,74.06
				c0-0.85-0.49-1.42-1.19-1.42h-2.32c-0.7,0-1.21,0.56-1.21,1.4v1.13h4.72V74.06z"/>
			<path d="M292.82,80.4c-0.61,0-1.12-0.31-1.46-0.95l-0.23-0.45c-0.16-0.31-0.2-0.54-0.2-1.01v-5.35h-1.89v-1.17h1.89v-2.03h1.26
				v2.03h2.84v1.17h-2.84v5.35c0,0.25,0.05,0.45,0.14,0.63l0.14,0.27c0.13,0.22,0.32,0.34,0.58,0.34h1.98v1.17H292.82z"/>
			<path d="M300.32,80.4c-1.03,0-1.69-0.45-2.16-1.31l-0.99-1.85c-0.23-0.43-0.34-0.83-0.34-1.3c0-0.45,0.13-0.86,0.36-1.3
				l0.99-1.87c0.47-0.9,1.22-1.3,2.18-1.3h2.97v1.17h-2.93c-0.56,0-0.88,0.27-1.13,0.74l-0.99,1.85c-0.13,0.23-0.18,0.47-0.18,0.7
				c0,0.25,0.05,0.43,0.18,0.68l0.97,1.87c0.27,0.5,0.56,0.74,1.08,0.74h2.79v1.17H300.32z"/>
			<path d="M311.56,80.4v-6.46c0-0.79-0.41-1.3-1.12-1.3h-0.77c-0.65,0-0.83,0.16-1.17,0.79l-1.3,2.41v4.56h-1.26V67.63h1.26v5.98
				l0.4-0.76c0.47-0.9,1.06-1.39,2.09-1.39h0.74c1.42,0,2.39,0.99,2.39,2.47v6.46H311.56z"/>
			<path d="M317.19,80.4v-7.76h-2.84v-1.17h3.04c0.76,0,1.06,0.41,1.06,1.03v7.9H317.19z M316.97,69.34v-1.71h1.69v1.71H316.97z"/>
			<path d="M327.34,80.4v-6.46c0-0.79-0.41-1.3-1.12-1.3h-0.77c-0.65,0-0.83,0.16-1.17,0.79l-1.3,2.41v4.56h-1.26v-8.93h1.01
				l0.18,2.3l0.47-0.92c0.47-0.9,1.06-1.39,2.09-1.39h0.74c1.42,0,2.39,0.99,2.39,2.47v6.46H327.34z"/>
			<path d="M339.08,81.43c0,1.51-1.04,2.57-2.47,2.57h-3.85v-1.17h3.85c0.7,0,1.21-0.54,1.21-1.39v-2.88l-0.23,0.41
				c-0.49,0.85-1.08,1.42-2.11,1.42h-1.51c-1.42,0-2.48-1.06-2.48-2.57v-3.8c0-1.51,1.06-2.56,2.48-2.56h1.53
				c1.03,0,1.67,0.56,2.12,1.42l0.29,0.56l0.2-1.98h0.97V81.43z M337.66,75.25l-0.97-1.85c-0.27-0.5-0.58-0.76-1.1-0.76h-1.66
				c-0.7,0-1.19,0.54-1.19,1.39v3.8c0,0.85,0.49,1.4,1.19,1.4h1.67c0.52,0,0.81-0.23,1.08-0.74l0.99-1.85
				c0.11-0.2,0.14-0.43,0.14-0.68S337.76,75.45,337.66,75.25z"/>
		</g>
	</g>
</g>
</svg>
