<svg height="512pt" viewBox="-10 0 512 512" width="512pt" xmlns="http://www.w3.org/2000/svg"><path  fill="currentColor" d="m483 395.171875-38.734375-22.375v-79.640625l38.734375-22.375c9.566406-5.523438 12.839844-17.757812 7.316406-27.320312-5.527344-9.566407-17.757812-12.84375-27.324218-7.316407l-38.769532 22.394531-68.839844-39.746093v-79.542969l38.832032-22.421875c9.566406-5.519531 12.84375-17.753906 7.320312-27.316406-5.523437-9.566407-17.753906-12.847657-27.320312-7.320313l-38.832032 22.417969-68.882812-39.765625v-44.84375c0-11.046875-8.953125-20-20-20s-20 8.953125-20 20v44.84375l-68.882812 39.769531-38.835938-22.421875c-9.5625-5.523437-21.796875-2.246094-27.316406 7.320313-5.523438 9.566406-2.246094 21.796875 7.316406 27.320312l38.835938 22.421875v79.542969l-68.839844 39.742187-38.769532-22.394531c-9.566406-5.523437-21.796874-2.25-27.324218 7.316407-5.523438 9.5625-2.25 21.796874 7.316406 27.320312l38.734375 22.375v79.640625l-38.734375 22.375c-9.566406 5.523437-12.839844 17.753906-7.316406 27.320313 5.542968 9.597656 17.789062 12.824218 27.324218 7.316406l38.769532-22.394532 68.839844 39.746094v44.839844c0 11.046875 8.953124 20 20 20 11.046874 0 20-8.953125 20-20v-44.84375l68.882812-39.769531 68.882812 39.773437v44.839844c0 11.046875 8.957032 20 20 20 11.046876 0 20-8.953125 20-20v-44.84375l68.84375-39.746094 38.769532 22.394532c9.546875 5.515624 21.785156 2.269531 27.320312-7.3125 5.523438-9.566407 2.25-21.796876-7.316406-27.320313zm-256.5-22.425781-68.882812 39.769531-68.882813-39.769531v-79.542969l68.882813-39.769531 68.882812 39.773437zm-48.882812-153.953125v-79.539063l68.882812-39.769531 68.882812 39.769531v79.542969l-68.882812 39.765625zm226.648437 153.953125-68.882813 39.769531-68.882812-39.769531v-79.542969l68.882812-39.769531 68.882813 39.769531zm0 0"/></svg>
