<?xml version="1.0" encoding="utf-8"?>
<!-- Generator: Adobe Illustrator 23.0.3, SVG Export Plug-In . SVG Version: 6.00 Build 0)  -->
<svg version="1.1" id="Layer_1" xmlns="http://www.w3.org/2000/svg" xmlns:xlink="http://www.w3.org/1999/xlink" x="0px" y="0px"
	 viewBox="109 220 1056 205" xml:space="preserve">
<style type="text/css">
	.st0{fill:currentcolor;}
	.st1{fill:#3E96DB;}
</style>
<g>
	<g>
		<g>
			<path class="st0" d="M448.61,325.58l5.27,10.28h-11.52l-5.27-10.28l-5.51-10.78l-0.25-0.49c-1.81-2.96-5.02-4.94-8.72-4.94
				h-10.28v26.49h-10.28v-57.59h36.37c4.28,0,8.15,1.73,10.94,4.53c2.8,2.88,4.53,6.75,4.53,11.02c0,6.25-3.7,11.68-9.05,14.15
				c-1.4,0.66-2.88,1.07-4.44,1.23L448.61,325.58z M438.41,299.09c0.74,0,1.48-0.16,2.14-0.49c1.89-0.82,3.13-2.72,3.13-4.77
				c0-1.89-0.99-3.21-1.56-3.78c-0.66-0.66-1.89-1.48-3.7-1.48h-26.08v10.61L438.41,299.09z"/>
			<path class="st0" d="M518.13,293.74v5.35h37.02v10.28h-37.02v10.86c0,2.88,2.39,5.27,5.27,5.27h42.04v10.28H523.4
				c-8.56,0-15.47-6.99-15.47-15.55v-26.49c0-8.56,6.91-15.55,15.47-15.55h42.04v10.28H523.4
				C520.52,288.48,518.13,290.86,518.13,293.74z"/>
			<path class="st0" d="M674.79,335.78h-11.52L658,325.5l-12.59-24.68l-12.59,24.68l-5.27,10.28h-11.52l5.27-10.28l24.11-47.31
				l24.11,47.31L674.79,335.78z"/>
			<path class="st0" d="M727.61,306.99c0,10.2,8.31,18.51,18.51,18.51h28.8v10.28h-28.8c-15.88,0-28.8-12.92-28.8-28.8
				s12.92-28.8,28.8-28.8h28.8v10.28h-28.8C735.92,288.48,727.61,296.79,727.61,306.99z"/>
			<path class="st0" d="M886.32,278.27v10.28h-23.61v47.31h-10.28v-47.31h-23.61v-10.28H886.32z"/>
			<path class="st0" d="M940.3,335.78v-57.59h10.28v57.59H940.3z"/>
			<path class="st0" d="M1059.85,278.19l-5.27,10.28l-24.11,47.31l-24.11-47.31l-5.27-10.28h11.52l5.27,10.28l12.59,24.68
				l12.59-24.68l5.27-10.28H1059.85z"/>
			<path class="st0" d="M1117.19,293.74v5.35h37.02v10.28h-37.02v10.86c0,2.88,2.39,5.27,5.27,5.27h42.04v10.28h-42.04
				c-8.56,0-15.47-6.99-15.47-15.55v-26.49c0-8.56,6.91-15.55,15.47-15.55h42.04v10.28h-42.04
				C1119.58,288.48,1117.19,290.86,1117.19,293.74z"/>
		</g>
		<g>
			<path class="st0" d="M562.83,376.16h9.02c6.88,0,11.55,4.34,11.55,10.7c0,6.36-4.68,10.7-11.55,10.7h-9.02V376.16z M571.67,394.9
				c5.29,0,8.68-3.24,8.68-8.04c0-4.8-3.39-8.04-8.68-8.04h-5.78v16.08H571.67z"/>
			<path class="st0" d="M625.16,392.21h-11.37l-2.35,5.35h-3.15l9.69-21.4H621l9.72,21.4h-3.21L625.16,392.21z M624.09,389.76
				l-4.62-10.48l-4.62,10.48H624.09z"/>
			<path class="st0" d="M660.83,378.82h-7.34v-2.66h17.7v2.66h-7.34v18.74h-3.03V378.82z"/>
			<path class="st0" d="M710.84,392.21h-11.37l-2.35,5.35h-3.15l9.69-21.4h3.03l9.72,21.4h-3.21L710.84,392.21z M709.77,389.76
				l-4.62-10.48l-4.62,10.48H709.77z"/>
			<path class="st0" d="M773.57,386.86c0-6.33,4.83-10.94,11.34-10.94c3.3,0,6.17,1.13,8.13,3.33l-1.99,1.93
				c-1.65-1.74-3.67-2.54-6.02-2.54c-4.83,0-8.41,3.48-8.41,8.22c0,4.74,3.58,8.22,8.41,8.22c2.35,0,4.37-0.83,6.02-2.57l1.99,1.93
				c-1.96,2.2-4.83,3.36-8.16,3.36C778.4,397.8,773.57,393.19,773.57,386.86z"/>
			<path class="st0" d="M821.16,376.16h3.06v18.74h11.59v2.66h-14.64V376.16z"/>
			<path class="st0" d="M863.07,376.16h3.06v21.4h-3.06V376.16z"/>
			<path class="st0" d="M911.82,394.9v2.66h-15.53v-21.4h15.1v2.66h-12.04v6.57h10.73v2.6h-10.73v6.91H911.82z"/>
			<path class="st0" d="M958.93,376.16v21.4h-2.51l-12.84-15.96v15.96h-3.06v-21.4h2.51l12.84,15.96v-15.96H958.93z"/>
			<path class="st0" d="M993.35,378.82h-7.34v-2.66h17.7v2.66h-7.34v18.74h-3.03V378.82z"/>
		</g>
	</g>
	<g>
		<path class="st1" d="M275.11,347.41c-21.84,54.68-67.33,87.9-101.61,74.21c-1.86-0.74-3.65-1.61-5.36-2.59
			c31.37,7.82,68.88-18.56,86.22-61.96c18.43-46.13,7.09-94.02-25.32-106.97c-19.2-7.67-41.49-1.36-60.3,14.65
			c23.82-34.07,57.23-51.76,83.86-41.13C286.87,237.31,296.95,292.74,275.11,347.41z"/>
		<path class="st1" d="M215.54,391.87c-67.76-21.72-114.76-64.06-104.98-94.57c0.53-1.66,1.22-3.24,2.06-4.76
			c-3.46,28.09,34.11,62.97,87.9,80.22c57.17,18.33,111.01,9.8,120.25-19.05c5.48-17.09-5.92-37.48-28-55.07
			c44.07,22.77,70.76,53.62,63.16,77.33C346.16,406.48,283.3,413.6,215.54,391.87z"/>
		<path class="st1" d="M161.63,326.13c37.03-27.02,76.92-35.4,89.08-18.72c0.66,0.91,1.22,1.86,1.7,2.88
			c-13.31-12.47-45.72-6.16-75.13,15.29c-31.25,22.79-47.25,54.05-35.75,69.82c6.81,9.34,21.75,11.15,39.29,6.34
			c-28.58,14.29-54.78,16.46-64.23,3.51C104.44,388.57,124.6,353.15,161.63,326.13z"/>
		<circle class="st1" cx="212.69" cy="340.87" r="11.83"/>
		<circle class="st1" cx="143.77" cy="298.83" r="11.83"/>
		<circle class="st1" cx="318.02" cy="274.77" r="11.83"/>
	</g>
</g>
</svg>
