<svg width="40" height="40" viewBox="0 0 40 40" fill="none" role="img" xmlns="http://www.w3.org/2000/svg"><circle cx="20" cy="20" r="20" fill="#146ACD"></circle><path fill-rule="evenodd" clip-rule="evenodd" d="M25.131 26.684A11.994 11.994 0 0 0 27 29.664C25.343 30.588 23.607 31 21.714 31 16.085 31 12 27.156 12 21.022 12 14.844 16.293 11 21.714 11c1.929 0 3.45.434 4.983 1.283a12.216 12.216 0 0 0-1.752 3.077 7.365 7.365 0 0 0-2.857-.559c-3.335 0-5.92 2.204-5.92 6.22 0 3.802 2.502 6.221 6.088 6.221a7.532 7.532 0 0 0 2.875-.558z" fill="#0F56A8"></path><path fill-rule="evenodd" clip-rule="evenodd" d="M25.131 25.684A11.994 11.994 0 0 0 27 28.664C25.343 29.588 23.607 30 21.714 30 16.085 30 12 26.156 12 20.022 12 13.844 16.293 10 21.714 10c1.929 0 3.45.434 4.983 1.283a12.216 12.216 0 0 0-1.752 3.077 7.365 7.365 0 0 0-2.857-.559c-3.335 0-5.92 2.204-5.92 6.22 0 3.802 2.502 6.221 6.088 6.221a7.532 7.532 0 0 0 2.875-.558z" fill="#fff"></path></svg>
