<svg xmlns="http://www.w3.org/2000/svg" xmlns:xlink="http://www.w3.org/1999/xlink" version="1.1" x="0px" y="0px" viewBox="0 0 30 22.5" xml:space="preserve"><g transform="translate(-270 -140)"><g xmlns="http://www.w3.org/2000/svg" xmlns:xlink="http://www.w3.org/1999/xlink"><path fill="currentColor" d="M279,161c-0.736,0-1.375,0.405-1.722,1c-0.172,0.295-0.278,0.635-0.278,1c0,1.102,0.897,2,2,2c1.103,0,2-0.898,2-2    c0-0.365-0.105-0.705-0.278-1C280.375,161.405,279.737,161,279,161z"/><path fill="currentColor" d="M293,161c-0.736,0-1.375,0.405-1.722,1c-0.172,0.295-0.278,0.635-0.278,1c0,1.102,0.897,2,2,2c1.103,0,2-0.898,2-2    c0-0.365-0.105-0.705-0.278-1C294.375,161.405,293.737,161,293,161z"/><path fill="currentColor" d="M299,159v-1l-6-1.715L286,152h-11v1h6v1h-11v1h12v1h-10v1h5v1h-2v1h-4v1h5v1h-1v1h-3v1h4c0-0.352,0.072-0.686,0.184-1    c0.414-1.162,1.512-2,2.816-2c1.305,0,2.402,0.838,2.816,2c0.111,0.314,0.184,0.648,0.184,1h8c0-0.352,0.072-0.686,0.184-1    c0.414-1.162,1.512-2,2.816-2c1.305,0,2.402,0.838,2.816,2c0.111,0.314,0.184,0.648,0.184,1h3v-1h1v-3H299z"/></g></g></svg>
