<?xml version="1.0" encoding="utf-8"?>
<!-- Generator: Adobe Illustrator 23.0.3, SVG Export Plug-In . SVG Version: 6.00 Build 0)  -->
<svg version="1.1" id="Layer_1" xmlns="http://www.w3.org/2000/svg" xmlns:xlink="http://www.w3.org/1999/xlink" x="0px" y="0px"
	 width="419.02px" height="90px" viewBox="0 0 419.02 90" enable-background="new 0 0 419.02 90" xml:space="preserve">
<g>
	<g>
		<polygon fill="#00F2E6" points="31.4,58.6 23.1,68.85 31.1,82.85 47.1,85.79 47.1,70.85 35.1,66.85 		"/>
		<polygon fill="#00F2E6" points="62.79,58.6 75.1,56.85 82.1,43.85 78.49,31.41 67.1,31.85 66.1,51.85 		"/>
		<polygon fill="#00F2E6" points="47.1,31.41 45.1,13.85 22.1,23.85 15.7,31.41 22.1,40.85 38.1,31.85 		"/>
		<path fill="#00F2E6" d="M31.4,58.6c0-11.62,6.32-21.76,15.7-27.19c-4.62-2.67-9.98-4.21-15.7-4.21C14.06,27.2,0,41.26,0,58.6
			S14.06,90,31.4,90c5.72,0,11.08-1.54,15.7-4.21C37.72,80.36,31.4,70.22,31.4,58.6z"/>
		<path fill="#633EFF" d="M62.79,58.6c-10.06,5.81-22,5.41-31.39,0c-0.01,5.34,1.34,10.75,4.2,15.7
			c8.67,15.02,27.87,20.16,42.89,11.49S98.65,57.91,89.98,42.9c-2.86-4.95-6.87-8.83-11.5-11.49C78.48,42.25,72.86,52.79,62.79,58.6
			z"/>
		<path fill="#F93AEB" d="M47.09,31.4c10.06,5.81,15.68,16.35,15.7,27.19c4.62-2.66,8.64-6.54,11.5-11.49
			c8.67-15.02,3.53-34.22-11.49-42.89S28.57,0.69,19.9,15.7c-2.86,4.95-4.21,10.36-4.2,15.7C25.09,26,37.03,25.59,47.09,31.4z"/>
		<path d="M167.92,38.77c0,4.8-3.38,8.18-7.95,8.18h-1.75c0.06,0.45,0.4,1.07,0.62,1.52L167.7,65h-4.68l-7.73-14.5
			c-0.68-1.24-1.13-2.37-1.35-3.55h-8.41V65h-4.23V25h18.67c4.57,0,7.95,3.44,7.95,8.24V38.77z M163.69,33.24
			c0-2.6-1.52-4.34-3.61-4.34h-14.56v14.16h14.5c2.14,0,3.67-1.69,3.67-4.29V33.24z"/>
		<path d="M196.86,47.79c0,2.82-1.75,4.51-4.29,4.51h-14.5v4.63c0,2.65,1.52,4.4,3.72,4.4h12.92V65h-12.81
			c-4.46,0-7.79-3.33-7.79-8.07V45.08c0-4.74,3.27-8.07,7.73-8.07h7.17c4.46,0,7.84,3.33,7.84,8.07V47.79z M192.86,45.14
			c0-2.65-1.52-4.46-3.72-4.46h-7.28c-2.2,0-3.78,1.75-3.78,4.4v3.55h14.78V45.14z"/>
		<path d="M222.08,60.15l-0.79,1.52c-1.3,2.54-2.82,3.33-5.36,3.33h-11.9v-3.67h11.51c1.24,0,1.75-0.45,2.31-1.47l0.73-1.35
			c0.34-0.62,0.57-1.35,0.57-2.14l-13.37-7.39c-1.81-1.01-2.71-2.09-2.71-4.06c0-0.9,0.34-1.75,1.07-3.16l0.79-1.52
			c1.3-2.48,2.82-3.22,5.36-3.22h11.57v3.67h-11.17c-1.24,0-1.75,0.28-2.31,1.35l-0.73,1.41c-0.4,0.73-0.56,1.24-0.56,1.98
			l13.26,7.39c1.92,1.07,2.82,2.09,2.82,4.06C223.15,57.78,222.81,58.74,222.08,60.15z"/>
		<path d="M238.67,65c-1.92,0-3.5-0.96-4.57-2.99l-0.73-1.41c-0.51-0.96-0.62-1.69-0.62-3.16V40.68h-5.92v-3.67h5.92v-6.38h3.95
			v6.38h8.91v3.67h-8.91v16.76c0,0.79,0.17,1.41,0.45,1.97l0.45,0.85c0.39,0.68,1.02,1.07,1.8,1.07h6.21V65H238.67z"/>
		<path d="M291.81,65V46.89h-18.84V65h-4.23V25h4.23v18h18.84V25h4.23v40H291.81z"/>
		<path d="M315.16,65c-3.22,0-5.3-1.41-6.77-4.12l-3.1-5.81c-0.73-1.35-1.07-2.59-1.07-4.06c0-1.41,0.4-2.71,1.13-4.06l3.1-5.87
			c1.47-2.82,3.84-4.06,6.83-4.06h4.63c2.99,0,5.36,1.24,6.83,4.06l3.1,5.87c0.73,1.35,1.13,2.65,1.13,4.06
			c0,1.47-0.34,2.71-1.07,4.06l-3.1,5.81c-1.47,2.71-3.55,4.12-6.77,4.12H315.16z M320.01,61.33c1.64,0,2.54-0.73,3.38-2.31
			l3.05-5.87c0.4-0.79,0.56-1.35,0.56-2.14c0-0.73-0.17-1.47-0.56-2.2l-3.1-5.81c-0.79-1.47-1.8-2.31-3.55-2.31h-4.4
			c-1.75,0-2.76,0.85-3.55,2.31l-3.1,5.81c-0.39,0.73-0.56,1.47-0.56,2.2c0,0.79,0.17,1.35,0.56,2.14l3.05,5.87
			c0.85,1.58,1.75,2.31,3.39,2.31H320.01z"/>
		<path d="M346.98,65c-3.22,0-5.3-1.41-6.77-4.12l-3.1-5.81c-0.73-1.35-1.07-2.59-1.07-4.06c0-1.41,0.4-2.71,1.13-4.06l3.1-5.87
			c1.47-2.82,3.84-4.06,6.83-4.06h4.63c2.99,0,5.36,1.24,6.83,4.06l3.1,5.87c0.73,1.35,1.13,2.65,1.13,4.06
			c0,1.47-0.34,2.71-1.07,4.06l-3.1,5.81c-1.47,2.71-3.55,4.12-6.77,4.12H346.98z M351.83,61.33c1.64,0,2.54-0.73,3.38-2.31
			l3.05-5.87c0.4-0.79,0.56-1.35,0.56-2.14c0-0.73-0.17-1.47-0.56-2.2l-3.1-5.81c-0.79-1.47-1.81-2.31-3.55-2.31h-4.4
			c-1.75,0-2.76,0.85-3.55,2.31l-3.1,5.81c-0.39,0.73-0.56,1.47-0.56,2.2c0,0.79,0.17,1.35,0.56,2.14l3.05,5.87
			c0.85,1.58,1.75,2.31,3.39,2.31H351.83z"/>
		<path d="M386.69,48.92c3.22,0.85,5.25,3.67,5.25,7.45V65h-3.95v-8.63c0-2.48-1.3-4.06-3.5-4.06h-10.16V65h-3.95V25h3.95v23.64
			h8.12l6.26-11.62h4.29L386.69,48.92z"/>
		<path d="M417.95,60.15l-0.79,1.52c-1.3,2.54-2.82,3.33-5.36,3.33h-11.9v-3.67h11.51c1.24,0,1.75-0.45,2.31-1.47l0.73-1.35
			c0.34-0.62,0.56-1.35,0.56-2.14l-13.37-7.39c-1.81-1.01-2.71-2.09-2.71-4.06c0-0.9,0.34-1.75,1.07-3.16l0.79-1.52
			c1.3-2.48,2.82-3.22,5.36-3.22h11.57v3.67h-11.17c-1.24,0-1.75,0.28-2.31,1.35l-0.73,1.41c-0.4,0.73-0.56,1.24-0.56,1.98
			l13.26,7.39c1.92,1.07,2.82,2.09,2.82,4.06C419.02,57.78,418.68,58.74,417.95,60.15z"/>
	</g>
</g>
</svg>
