<?xml version="1.0" standalone="no"?>
<!DOCTYPE svg PUBLIC "-//W3C//DTD SVG 20010904//EN"
 "http://www.w3.org/TR/2001/REC-SVG-20010904/DTD/svg10.dtd">
<svg version="1.0" xmlns="http://www.w3.org/2000/svg"
 width="744.000000pt" height="744.000000pt" viewBox="0 0 744.000000 744.000000"
 preserveAspectRatio="xMidYMid meet">
<metadata>
Created by potrace 1.14, written by Peter Selinger 2001-2017
</metadata>
<g transform="translate(0.000000,744.000000) scale(0.100000,-0.100000)"
fill="#000000" stroke="none">
<path d="M3736 6762 c-2 -1 -31 -4 -66 -7 -94 -8 -204 -30 -321 -63 -125 -37
-367 -144 -464 -205 -179 -113 -233 -150 -305 -206 -86 -66 -103 -80 -194
-161 -75 -67 -220 -214 -299 -305 -38 -44 -81 -93 -96 -109 -14 -16 -33 -39
-41 -52 -8 -12 -42 -57 -74 -100 -32 -44 -64 -86 -70 -94 -9 -13 16 5 50 35
11 10 22 18 113 85 53 39 59 42 149 100 34 22 65 40 67 40 2 0 46 23 97 51 51
27 94 49 96 49 1 -1 37 13 79 30 41 17 83 33 92 35 9 2 28 8 44 14 15 6 38 13
50 16 12 2 42 9 67 16 82 20 81 20 219 38 116 15 340 4 456 -24 69 -16 144
-38 172 -51 17 -7 33 -14 36 -14 7 0 146 -67 172 -82 216 -132 369 -281 508
-495 54 -83 153 -276 163 -319 4 -16 11 -34 16 -40 6 -9 33 -86 44 -126 1 -5
2 -9 4 -10 1 -2 3 -10 5 -18 2 -8 6 -24 9 -35 13 -47 27 -101 32 -120 3 -11 7
-29 9 -40 10 -59 17 -100 21 -119 2 -11 7 -41 10 -66 3 -25 7 -56 10 -70 6
-37 17 -224 17 -310 0 -109 -11 -343 -17 -360 -3 -8 -7 -40 -10 -70 -3 -30
-12 -95 -21 -145 -9 -49 -18 -101 -20 -115 -13 -75 -79 -321 -114 -428 -53
-159 -154 -405 -210 -512 -55 -104 -104 -195 -119 -220 -52 -89 -124 -199
-136 -209 -10 -8 -101 -9 -101 -1 0 1 -13 3 -30 5 -80 9 -132 16 -155 20 -29
6 -62 12 -140 25 -93 17 -177 34 -225 45 -11 3 -29 7 -40 9 -11 2 -40 9 -65
16 -25 7 -56 14 -70 17 -67 11 -478 135 -512 154 -10 5 -24 9 -31 9 -21 0
-377 141 -512 202 -153 70 -299 141 -305 148 -3 4 -21 12 -40 20 -19 8 -37 16
-40 20 -3 3 -30 18 -60 34 -30 16 -62 34 -70 41 -8 6 -26 16 -40 23 -14 7 -34
18 -44 24 -11 7 -59 38 -107 68 l-86 56 21 25 c11 14 41 49 66 79 105 127 282
304 420 420 29 25 58 50 64 55 40 39 312 235 325 235 5 0 11 4 13 9 6 16 423
261 445 261 2 0 39 16 81 36 170 80 383 154 557 194 79 19 98 22 185 35 25 4
59 9 75 12 41 6 273 6 313 -1 17 -3 47 -8 65 -11 81 -14 226 -64 256 -88 7 -6
21 -16 31 -22 10 -5 32 -20 48 -33 l30 -22 -11 25 c-7 14 -15 25 -19 25 -5 0
-8 4 -8 10 0 24 -89 113 -155 155 -52 32 -103 55 -170 76 -130 41 -344 55
-515 33 -36 -4 -77 -8 -92 -8 -16 -1 -28 -4 -28 -8 0 -4 -9 -5 -20 -3 -11 2
-22 0 -25 -5 -3 -4 -13 -7 -23 -5 -9 1 -27 -2 -40 -6 -13 -5 -37 -11 -55 -14
-18 -4 -56 -13 -86 -22 -29 -8 -59 -16 -65 -17 -85 -17 -404 -141 -586 -229
-142 -68 -462 -245 -505 -279 -5 -5 -59 -41 -120 -80 -60 -40 -112 -75 -115
-78 -3 -4 -27 -21 -55 -40 -27 -19 -52 -36 -55 -39 -3 -3 -43 -35 -90 -71 -47
-35 -90 -69 -96 -75 -6 -5 -29 -25 -52 -43 -65 -53 -211 -183 -274 -245 -34
-32 -30 -31 -55 -9 -11 9 -44 37 -74 62 -207 176 -398 382 -514 555 -22 33
-42 62 -45 65 -17 17 -149 275 -154 302 -2 7 -6 20 -9 28 -9 23 -27 85 -32
109 -3 11 -7 31 -10 44 -12 53 -18 118 -19 204 0 72 -3 88 -12 75 -14 -20 -66
-162 -59 -162 2 0 0 -11 -5 -24 -32 -84 -24 -281 16 -426 8 -30 17 -62 19 -70
20 -76 121 -278 192 -385 122 -182 308 -391 497 -558 35 -32 37 -37 25 -55
-15 -21 -103 -124 -131 -154 -10 -10 -18 -22 -18 -27 0 -5 -4 -11 -8 -13 -30
-13 -225 -305 -306 -460 -133 -253 -185 -426 -191 -637 -7 -235 98 -417 301
-524 62 -33 196 -72 286 -83 72 -9 261 -9 328 -1 25 3 65 8 90 12 25 3 56 8
70 11 14 3 36 7 50 9 91 15 305 76 443 125 118 42 427 175 427 184 0 4 -28 -1
-75 -15 -34 -9 -69 -16 -135 -25 -25 -3 -48 -8 -51 -10 -7 -4 -187 -16 -244
-16 -246 -1 -457 74 -590 208 -68 69 -131 181 -142 254 -2 14 -7 36 -12 50 -9
28 -7 228 3 275 4 17 9 41 11 55 9 50 17 85 23 95 4 6 7 15 8 20 12 67 175
409 199 419 8 3 21 -1 29 -9 8 -8 19 -15 24 -15 6 0 12 -4 14 -9 2 -5 73 -54
158 -110 85 -55 160 -105 167 -111 7 -5 15 -10 19 -10 4 0 30 -14 58 -32 51
-31 84 -50 161 -94 60 -34 461 -236 530 -266 138 -61 186 -82 310 -132 248
-101 544 -204 824 -285 96 -28 177 -54 180 -56 5 -5 -112 -121 -191 -189 -72
-62 -258 -196 -344 -248 -203 -122 -440 -219 -619 -254 -11 -2 -31 -6 -45 -9
-37 -8 -120 -18 -162 -19 -21 -1 -38 -3 -38 -6 0 -10 -294 5 -311 15 -5 4 -30
8 -56 11 l-48 5 62 -30 c64 -31 192 -80 228 -87 22 -4 53 -11 88 -19 84 -20
372 -27 467 -11 25 4 59 9 75 12 134 22 321 87 490 169 262 127 496 294 728
518 50 49 62 54 107 44 14 -3 43 -9 65 -13 22 -4 42 -9 45 -9 3 -1 19 -4 35
-8 17 -3 46 -9 65 -11 19 -3 46 -8 60 -11 26 -6 65 -12 128 -20 20 -3 48 -7
62 -10 40 -8 81 -13 145 -20 33 -4 74 -9 90 -11 17 -2 59 -6 95 -9 36 -3 81
-8 100 -10 181 -24 725 -24 945 -1 75 9 152 18 175 21 14 3 43 7 65 10 47 7
58 9 148 28 37 8 67 12 67 10 0 -3 7 0 15 7 8 7 15 10 15 7 0 -3 24 1 53 10
28 8 57 16 62 17 66 14 265 90 359 137 399 200 605 498 591 854 -4 121 -8 151
-32 240 -31 113 -124 324 -160 363 -7 7 -13 20 -13 28 0 8 -3 14 -8 14 -4 0
-16 17 -27 37 -11 20 -25 41 -30 47 -6 6 -25 31 -43 56 -17 25 -44 59 -59 77
-15 17 -39 46 -53 65 -44 58 -307 315 -402 394 -51 42 -102 84 -113 93 -11 9
-38 30 -60 46 -39 29 -48 36 -79 63 -8 6 -19 12 -25 12 -5 0 -11 4 -13 8 -4
12 -202 147 -333 227 -60 37 -121 75 -135 83 -14 9 -27 15 -30 15 -3 -1 -12 4
-20 11 -8 7 -44 29 -80 48 -36 20 -87 48 -113 62 -57 31 -71 33 -37 5 123
-102 344 -317 397 -386 12 -15 30 -37 40 -48 105 -116 278 -406 318 -535 6
-20 29 -96 30 -100 0 -3 4 -14 7 -25 30 -93 37 -303 14 -414 -21 -95 -90 -271
-108 -271 -4 0 -8 -6 -8 -13 0 -7 -9 -23 -20 -35 -11 -12 -20 -24 -20 -28 0
-19 -165 -178 -230 -222 -30 -20 -61 -42 -68 -49 -32 -31 -352 -177 -412 -189
-3 0 -12 -4 -20 -7 -27 -11 -234 -62 -290 -72 -14 -2 -34 -6 -45 -8 -11 -3
-40 -8 -65 -12 -25 -3 -56 -8 -70 -10 -28 -5 -109 -13 -190 -20 -30 -3 -135
-8 -234 -11 l-178 -6 53 79 c30 43 57 80 62 81 4 2 7 8 7 13 0 5 17 35 37 66
45 69 56 87 81 133 10 19 27 51 38 70 10 19 22 37 25 40 9 7 151 293 189 380
18 41 38 89 45 105 37 83 65 156 65 170 0 8 4 15 10 15 5 0 9 3 8 8 -1 4 13
52 32 107 19 55 35 102 35 105 1 3 4 12 7 20 19 48 99 343 112 410 3 14 8 36
11 50 3 14 10 45 15 70 4 25 11 56 13 70 3 14 11 59 17 100 6 41 13 86 16 100
2 14 6 50 9 80 3 30 7 76 10 101 22 203 22 570 0 739 -2 19 -7 58 -11 85 -11
94 -13 110 -19 135 -3 14 -8 40 -11 59 -10 58 -12 68 -44 187 -17 63 -49 164
-70 222 -40 108 -139 314 -152 320 -5 2 -8 8 -8 12 0 5 -14 31 -32 57 -117
177 -276 340 -421 433 -89 57 -102 64 -107 65 -3 0 -34 14 -70 32 -76 36 -207
79 -270 88 -25 4 -48 9 -52 11 -13 8 -285 23 -292 16z"/>
<path d="M6163 5485 c-24 -7 -43 -10 -43 -6 0 3 -4 1 -8 -4 -4 -6 -20 -17 -35
-24 -65 -34 -133 -114 -159 -190 -48 -134 -3 -299 104 -385 18 -14 39 -31 46
-37 30 -25 128 -47 192 -44 72 4 82 6 125 25 17 7 33 14 36 14 18 2 92 71 117
109 41 59 60 121 65 207 2 27 -15 105 -25 118 -6 6 -8 12 -4 12 12 0 -47 85
-85 121 -82 79 -221 115 -326 84z"/>
<path d="M942 4760 c-66 -24 -109 -50 -148 -92 -66 -71 -98 -156 -95 -251 6
-197 166 -348 363 -342 36 1 70 5 77 9 6 4 20 9 32 11 32 6 113 62 143 98 83
100 111 254 65 357 -7 14 -17 36 -23 50 -19 43 -104 120 -162 147 -74 34 -178
39 -252 13z"/>
<path d="M3050 3518 c-233 -40 -361 -288 -260 -501 44 -94 153 -175 255 -193
154 -25 304 50 374 189 32 61 35 76 35 155 1 75 -3 95 -27 147 -69 148 -222
230 -377 203z"/>
</g>
</svg>
