<svg width="256" height="256" viewBox="0 0 256 256" fill="none" xmlns="http://www.w3.org/2000/svg">
<rect width="256" height="256" rx="30" fill="#1652F0"/>
<path fill-rule="evenodd" clip-rule="evenodd" d="M163.545 164.946C157.067 167.323 150.238 168.576 142.841 168.576C117.024 168.576 99.0096 152.85 99.0096 128.142C99.0096 102.03 117.622 87.7083 141.635 87.7083C148.692 87.7083 155.544 88.8434 162.202 91.3377C165.427 83.9551 169.672 77.2489 174.817 71.3385C163.782 65.8208 152.829 63 138.941 63C99.9129 63 69 87.9835 69 128.142C69 168.016 98.412 193 138.941 193C152.569 193 165.071 190.322 177 184.318C171.59 178.627 167.058 172.135 163.545 164.946Z" fill="white"/>
</svg>
