<?xml version="1.0" encoding="utf-8"?>
<!-- Generator: Adobe Illustrator 23.0.3, SVG Export Plug-In . SVG Version: 6.00 Build 0)  -->
<svg version="1.1" id="Layer_1" xmlns="http://www.w3.org/2000/svg" xmlns:xlink="http://www.w3.org/1999/xlink" x="0px" y="0px"
	 width="94.2px" height="90px" viewBox="0 0 94.2 90" enable-background="new 0 0 94.2 90" xml:space="preserve">
<g>
	<g>
		<polygon fill="#00F2E6" points="31.4,58.6 23.1,68.85 31.1,82.85 47.1,85.79 47.1,70.85 35.1,66.85 		"/>
		<polygon fill="#00F2E6" points="62.79,58.6 75.1,56.85 82.1,43.85 78.49,31.41 67.1,31.85 66.1,51.85 		"/>
		<polygon fill="#00F2E6" points="47.1,31.41 45.1,13.85 22.1,23.85 15.7,31.41 22.1,40.85 38.1,31.85 		"/>
		<path fill="#00F2E6" d="M31.4,58.6c0-11.62,6.32-21.76,15.7-27.19c-4.62-2.67-9.98-4.21-15.7-4.21C14.06,27.2,0,41.26,0,58.6
			S14.06,90,31.4,90c5.72,0,11.08-1.54,15.7-4.21C37.72,80.36,31.4,70.22,31.4,58.6z"/>
		<path fill="#633EFF" d="M62.79,58.6c-10.06,5.81-22,5.41-31.39,0c-0.01,5.34,1.34,10.75,4.2,15.7
			c8.67,15.02,27.87,20.16,42.89,11.49S98.65,57.91,89.98,42.9c-2.86-4.95-6.87-8.83-11.5-11.49C78.48,42.25,72.86,52.79,62.79,58.6
			z"/>
		<path fill="#F93AEB" d="M47.09,31.4c10.06,5.81,15.68,16.35,15.7,27.19c4.62-2.66,8.64-6.54,11.5-11.49
			c8.67-15.02,3.53-34.22-11.49-42.89S28.57,0.69,19.9,15.7c-2.86,4.95-4.21,10.36-4.2,15.7C25.09,26,37.03,25.59,47.09,31.4z"/>
	</g>
</g>
</svg>
